<svg xmlns="http://www.w3.org/2000/svg" width="35.5" height="35.5" viewBox="0 0 35.5 35.5">
  <defs>
    <style>
      .cls-1 {
        fill: #2ecc71;
        fill-rule: evenodd;
      }
    </style>
  </defs>
  <path id="icon" class="cls-1" d="M737.125,2003.63a8.871,8.871,0,0,1-8.875,8.87h-8.875a8.849,8.849,0,0,1-5.307-15.95,15.276,15.276,0,0,1-1.349-6.24c0-7.35,4.967-13.31,11.094-13.31s11.093,5.96,11.093,13.31a15.276,15.276,0,0,1-1.349,6.24A8.835,8.835,0,0,1,737.125,2003.63Zm-13.312-22.19c-3.677,0-6.656,3.97-6.656,8.87s2.979,8.88,6.656,8.88,6.656-3.98,6.656-8.88S727.489,1981.44,723.813,1981.44Zm7.3,18.82a9.6,9.6,0,0,1-14.605,0,4.42,4.42,0,0,0,2.865,7.8h8.875A4.419,4.419,0,0,0,731.115,2000.26ZM746,2002.52a7.766,7.766,0,0,1-7.765,7.76h-4.171a8.813,8.813,0,0,0,2.747-4.44h1.424a3.325,3.325,0,1,0,0-6.65h-2.341a8.844,8.844,0,0,0-2.364-2.58,14.534,14.534,0,0,0,.7-1.86h3.965a8.661,8.661,0,0,0,1.152-4.44c0-3.67-1.987-6.65-4.438-6.65a3.043,3.043,0,0,0-1.376.36,13.138,13.138,0,0,0-2.441-3.68,7.349,7.349,0,0,1,3.817-1.12c4.9,0,8.876,4.97,8.876,11.09a13.069,13.069,0,0,1-1.3,5.71A7.767,7.767,0,0,1,746,2002.52Z" transform="translate(-710.5 -1977)"/>
</svg>
