<svg xmlns="http://www.w3.org/2000/svg" width="40.5" height="40.5" viewBox="0 0 40.5 40.5">
  <defs>
    <style>
      .cls-1 {
        fill: #2ecc71;
        fill-rule: evenodd;
      }
    </style>
  </defs>
  <path id="icon" class="cls-1" d="M730.25,1868a20.25,20.25,0,1,1,20.25-20.25A20.253,20.253,0,0,1,730.25,1868Zm-14.43-20.58c1.421-.16,4.362-0.38,5.752.33a21.546,21.546,0,0,1,5.015,4.19l-5.768,6.7a14.334,14.334,0,0,0,23.289-14.81,27.4,27.4,0,0,1-3.562,3.13c-2.026-.22-1.043,2.28-1.043,2.28,0.854,5.55-2.084,6.23-2.084,6.23-4.008,4.12-7.169-4.83-7.169-4.83-0.742-4.98-1.169-6.57-1.169-6.57-5.13-3.21-.075-4.37,1.011-4.56h0.032c0.261-.04.2-0.04-0.032,0-1.451.2-1.174-.68-2.053-2.28s-1.973.27-2.084,0-0.624,2.95-2.085,3.42-1.042-3.42-1.042-3.42c-2.821,4.32-3.742,3.22-4.038,1.8A14.391,14.391,0,0,0,715.82,1847.42Z" transform="translate(-710 -1827.5)"/>
</svg>
