<svg xmlns="http://www.w3.org/2000/svg" width="30.91" height="44.88" viewBox="0 0 30.91 44.88">
  <defs>
    <style>
      .cls-1 {
        fill: #2ecc71;
        fill-rule: evenodd;
      }
    </style>
  </defs>
  <path id="icon" class="cls-1" d="M1106.22,1831.97l-7.08-4.16a5.409,5.409,0,0,0-7.45,2.03l-13.63,24.02,0.95,18.08,15.58-8.37,13.63-24.02A5.608,5.608,0,0,0,1106.22,1831.97Zm-5.09,3.42-2.36-1.39a2.7,2.7,0,0,0-3.72,1.02l-10.91,19.21,0.24,8.39,6.85-4.22,10.9-19.22A2.788,2.788,0,0,0,1101.13,1835.39Zm-0.36,6.19-7.08-4.16-2.73,4.8,7.08,4.16Z" transform="translate(-1078.06 -1827.06)"/>
</svg>
