<svg xmlns="http://www.w3.org/2000/svg" width="36.38" height="34.18" viewBox="0 0 36.38 34.18">
  <defs>
    <style>
      .cls-1 {
        fill: #2ecc71;
        fill-rule: evenodd;
      }
    </style>
  </defs>
  <path id="icon" class="cls-1" d="M1111.01,1994.33l-8.98,8.94-1.49,1.49a14.878,14.878,0,0,1-20.95,0,14.7,14.7,0,0,1,0-20.86l1.5-1.49,2.99,2.98-1.5,1.49a10.508,10.508,0,0,0,0,14.9,10.617,10.617,0,0,0,14.96,0l1.5-1.49h0l8.98-8.94a2.125,2.125,0,0,1,2.99,0A2.094,2.094,0,0,1,1111.01,1994.33Zm-14.96,2.98h0a6.368,6.368,0,0,1-8.98,0,6.3,6.3,0,0,1,0-8.94l2.99-2.98a2.137,2.137,0,0,1,3,0,2.112,2.112,0,0,1,0,2.98l-3,2.98a2.112,2.112,0,0,0,0,2.98,2.137,2.137,0,0,0,3,0l4.48-4.47a6.332,6.332,0,0,0-8.97-8.94l-4.49,4.47-2.99-2.98,4.48-4.47a10.629,10.629,0,0,1,14.97,0,10.508,10.508,0,0,1,0,14.9Z" transform="translate(-1075.28 -1974.88)"/>
</svg>
