<svg fill="none"  xmlns="http://www.w3.org/2000/svg">
    <symbol id="tweeter"  viewBox="0 0 56.693 56.693">
        <path d="M52.837,15.065c-1.811,0.805-3.76,1.348-5.805,1.591c2.088-1.25,3.689-3.23,4.444-5.592c-1.953,1.159-4.115,2-6.418,2.454  c-1.843-1.964-4.47-3.192-7.377-3.192c-5.581,0-10.106,4.525-10.106,10.107c0,0.791,0.089,1.562,0.262,2.303  c-8.4-0.422-15.848-4.445-20.833-10.56c-0.87,1.492-1.368,3.228-1.368,5.082c0,3.506,1.784,6.6,4.496,8.412  c-1.656-0.053-3.215-0.508-4.578-1.265c-0.001,0.042-0.001,0.085-0.001,0.128c0,4.896,3.484,8.98,8.108,9.91  c-0.848,0.23-1.741,0.354-2.663,0.354c-0.652,0-1.285-0.063-1.902-0.182c1.287,4.015,5.019,6.938,9.441,7.019  c-3.459,2.711-7.816,4.327-12.552,4.327c-0.815,0-1.62-0.048-2.411-0.142c4.474,2.869,9.786,4.541,15.493,4.541  c18.591,0,28.756-15.4,28.756-28.756c0-0.438-0.009-0.875-0.028-1.309C49.769,18.873,51.483,17.092,52.837,15.065z"/>                        
    </symbol>
    <symbol id="facebook"  viewBox="0 0 9 17">
        <path id="icon" class="cls-1" d="M735,7994l-4,.01,0-7.01h-2v-4h2l0.071-1.4c0-2.22,1.248-4.6,3.929-4.6h3v4h-2c-1.044,0-1,.29-1,1v1h3l-1,4h-2v7Z" transform="translate(-729 -7977)"/>                    
    </symbol>
    <symbol id="pinterest" viewBox="0 0 20 20">
        <path id="icon" class="cls-1" d="M788,7985a9.79,9.79,0,0,1-1.341,5.02,10.017,10.017,0,0,1-3.639,3.64,9.975,9.975,0,0,1-7.858.92,7.976,7.976,0,0,0,1.015-2.13c0.078-.3.313-1.21,0.7-2.75a2.183,2.183,0,0,0,.951.88,3.056,3.056,0,0,0,1.484.37,4.721,4.721,0,0,0,2.813-.89,5.784,5.784,0,0,0,1.914-2.46,8.738,8.738,0,0,0,.677-3.51,5.37,5.37,0,0,0-.775-2.79,5.86,5.86,0,0,0-2.246-2.12,6.669,6.669,0,0,0-3.32-.82,8.411,8.411,0,0,0-2.552.38,6.542,6.542,0,0,0-2.012,1,6.985,6.985,0,0,0-1.419,1.44,5.842,5.842,0,0,0-.873,1.69,5.671,5.671,0,0,0-.28,1.74,5.189,5.189,0,0,0,.521,2.38,2.939,2.939,0,0,0,1.524,1.45,0.328,0.328,0,0,0,.494-0.26c0.018-.06.053-0.2,0.1-0.41s0.088-.33.105-0.39a0.6,0.6,0,0,0-.144-0.56,2.952,2.952,0,0,1-.664-1.96,4.737,4.737,0,0,1,4.922-4.79,4.225,4.225,0,0,1,3.067,1.06,3.7,3.7,0,0,1,1.1,2.78,7.42,7.42,0,0,1-.892,3.76,2.624,2.624,0,0,1-2.285,1.55,1.587,1.587,0,0,1-1.276-.57,1.473,1.473,0,0,1-.3-1.36c0.07-.3.185-0.71,0.346-1.22s0.29-.95.39-1.34a3.966,3.966,0,0,0,.15-0.98,1.66,1.66,0,0,0-.352-1.08,1.21,1.21,0,0,0-1-.43,1.676,1.676,0,0,0-1.368.74,2.993,2.993,0,0,0-.559,1.85,3.476,3.476,0,0,0,.325,1.59l-1.289,5.44a8.641,8.641,0,0,0-.169,2.31,9.966,9.966,0,0,1-4.336-3.66,10.034,10.034,0,0,1-.313-10.53,10.02,10.02,0,0,1,3.64-3.64,10.071,10.071,0,0,1,10.039,0,10.017,10.017,0,0,1,3.639,3.64A9.79,9.79,0,0,1,788,7985Z" transform="translate(-768 -7975)"/>
    </symbol>
    <symbol id="google" viewBox="0 0 19 18">
        <path id="icon" class="cls-1" d="M823.476,7991.46a2,2,0,0,0-.049-0.44c-0.032-.14-0.066-0.27-0.1-0.38a1.376,1.376,0,0,0-.19-0.38c-0.09-.13-0.166-0.24-0.227-0.33a2.514,2.514,0,0,0-.286-0.32c-0.13-.12-0.229-0.21-0.3-0.27s-0.184-.16-0.346-0.28-0.274-.2-0.336-0.25-0.18-.12-0.356-0.25-0.287-.19-0.331-0.22a3.911,3.911,0,0,0-.54-0.02,8.67,8.67,0,0,0-1.147.07,6.716,6.716,0,0,0-1.168.27,4.317,4.317,0,0,0-1.06.5,2.354,2.354,0,0,0-.747.81,2.437,2.437,0,0,0,.092,2.47,2.687,2.687,0,0,0,1.006.91,5.565,5.565,0,0,0,1.3.49,5.821,5.821,0,0,0,1.374.17,5.345,5.345,0,0,0,1.217-.14,4.141,4.141,0,0,0,1.087-.42,2.135,2.135,0,0,0,.806-0.8A2.3,2.3,0,0,0,823.476,7991.46Zm-1.3-9.32a5.913,5.913,0,0,0-.178-1.38,6.919,6.919,0,0,0-.509-1.41,3.1,3.1,0,0,0-.908-1.13,2.105,2.105,0,0,0-1.293-.44,1.821,1.821,0,0,0-1.558.75,2.893,2.893,0,0,0-.552,1.78,4.91,4.91,0,0,0,.125,1.07,5.586,5.586,0,0,0,.384,1.13,5.407,5.407,0,0,0,.606,1.01,2.8,2.8,0,0,0,.844.73,2.071,2.071,0,0,0,1.049.28,1.739,1.739,0,0,0,1.52-.66A2.886,2.886,0,0,0,822.178,7982.14Zm-1.417-5.14h4.727l-1.46.85h-1.46a3.244,3.244,0,0,1,1.189,1.37,4.132,4.132,0,0,1,.422,1.83,3.824,3.824,0,0,1-.249,1.42,3.149,3.149,0,0,1-.6,1c-0.238.25-.476,0.48-0.714,0.7a4.03,4.03,0,0,0-.606.66,1.2,1.2,0,0,0-.249.73,1,1,0,0,0,.179.55,2.7,2.7,0,0,0,.465.52c0.191,0.16.4,0.34,0.633,0.52s0.461,0.38.692,0.6a6.155,6.155,0,0,1,.633.71,3.254,3.254,0,0,1,.465.92,3.626,3.626,0,0,1,.178,1.15,3.945,3.945,0,0,1-1.514,3.05,6.708,6.708,0,0,1-4.543,1.42,8.159,8.159,0,0,1-1.293-.11,6.628,6.628,0,0,1-1.32-.36,4.936,4.936,0,0,1-1.173-.63,2.95,2.95,0,0,1-.833-0.96,2.657,2.657,0,0,1-.325-1.31,3.306,3.306,0,0,1,.4-1.46,3.2,3.2,0,0,1,1.039-1.2,5.177,5.177,0,0,1,1.568-.77,13.024,13.024,0,0,1,1.677-.39,12.482,12.482,0,0,1,1.622-.14,2.776,2.776,0,0,1-.692-1.62,1.508,1.508,0,0,1,.022-0.25,1.229,1.229,0,0,1,.054-0.21c0.022-.06.05-0.14,0.086-0.23a2.108,2.108,0,0,0,.076-0.24,5.6,5.6,0,0,1-.757.06,3.97,3.97,0,0,1-2.764-1.06,3.477,3.477,0,0,1-1.152-2.66,4.032,4.032,0,0,1,1.028-2.71,4.539,4.539,0,0,1,2.531-1.53A9.331,9.331,0,0,1,820.761,7977ZM833,7980v1h-3v3h-1v-3h-3v-1h3v-3h1v3h3Z" transform="translate(-814 -7977)"/>
    </symbol>
    <symbol id="dribble" viewBox="0 0 17.906 17.91">
        <path id="icon" class="cls-1" d="M874.714,7987.25a8.915,8.915,0,0,1-.521,1.68,9.085,9.085,0,0,1-1.917,2.85,9.4,9.4,0,0,1-1.322,1.09,8.927,8.927,0,0,1-1.521.82,8.985,8.985,0,0,1-6.966,0,8.918,8.918,0,0,1-1.52-.82,9.35,9.35,0,0,1-1.323-1.09,9.178,9.178,0,0,1-1.092-1.33,9.081,9.081,0,0,1-.824-1.52,8.7,8.7,0,0,1-.521-1.68,8.944,8.944,0,0,1,0-3.6,8.7,8.7,0,0,1,.521-1.68,9.081,9.081,0,0,1,.824-1.52,9.178,9.178,0,0,1,1.092-1.33,9.35,9.35,0,0,1,1.323-1.09,8.918,8.918,0,0,1,1.52-.82,8.3,8.3,0,0,1,1.681-.52,8.64,8.64,0,0,1,3.6,0,8.3,8.3,0,0,1,1.681.52,8.927,8.927,0,0,1,1.521.82,9.4,9.4,0,0,1,1.322,1.09,9.085,9.085,0,0,1,1.917,2.85A8.974,8.974,0,0,1,874.714,7987.25Zm-4.525,4.37a7.2,7.2,0,0,0,1.056-.88,7.42,7.42,0,0,0,.915-1.1,7.4,7.4,0,0,0,1.126-2.68c0.023-.11.034-0.23,0.052-0.34a2.262,2.262,0,0,0-.241-0.07c-0.015,0-.029-0.01-0.045-0.01-0.216-.05-0.5-0.12-0.844-0.17h0a10.723,10.723,0,0,0-3.474-.03A33.646,33.646,0,0,1,870.189,7991.62Zm-7.154.73a7.708,7.708,0,0,0,1.405.44,7.445,7.445,0,0,0,4.425-.44c0.014-.01.027-0.01,0.041-0.02a31.946,31.946,0,0,0-1.606-5.64c-0.017,0-.033.01-0.049,0.01a12.411,12.411,0,0,0-1.269.53c-0.056.02-.116,0.05-0.17,0.07a10.688,10.688,0,0,0-1.023.57c-0.06.04-.118,0.07-0.176,0.11-0.305.2-.589,0.4-0.847,0.6-0.041.03-.078,0.06-0.118,0.09-0.261.21-.5,0.42-0.718,0.63h0c-0.218.21-.406,0.41-0.577,0.6-0.024.03-.05,0.06-0.073,0.09q-0.234.27-.409,0.51c-0.022.03-.044,0.05-0.065,0.08-0.108.15-.2,0.29-0.278,0.41-0.012.02-.022,0.04-0.034,0.06-0.07.11-.13,0.21-0.167,0.28h0a4.944,4.944,0,0,0,.436.33A7.784,7.784,0,0,0,863.035,7992.35Zm-4.561-7.14c0,0.08-.012.16-0.012,0.24a7.583,7.583,0,0,0,.152,1.51,7.375,7.375,0,0,0,1.127,2.68,7.111,7.111,0,0,0,.622.75h0c0.051-.08.127-0.2,0.216-0.33,0.016-.02.028-0.04,0.045-0.06,0.094-.14.209-0.29,0.34-0.46,0.026-.03.05-0.07,0.078-0.1,0.14-.18.3-0.37,0.476-0.57,0.026-.03.054-0.06,0.082-0.09,0.194-.22.4-0.44,0.64-0.67h0c0.231-.22.488-0.44,0.76-0.67a1.168,1.168,0,0,0,.122-0.1,9.759,9.759,0,0,1,.856-0.61l0.174-.12c0.312-.19.64-0.38,0.989-0.55,0.053-.03.108-0.05,0.161-0.08a10.251,10.251,0,0,1,1.178-.47c0.1-.03.2-0.06,0.295-0.08-0.194-.44-0.4-0.88-0.618-1.31a28.463,28.463,0,0,1-7.279,1.09h-0.4Zm4.312-6.54a7.855,7.855,0,0,0-1.023.57,8.308,8.308,0,0,0-1.107.91,7.982,7.982,0,0,0-.915,1.11,7.457,7.457,0,0,0-1.11,2.62c0.08,0,.19-0.01.325-0.01h0.009c0.275,0,.655-0.02,1.119-0.05h0a29.813,29.813,0,0,0,4.735-.7h0l0.7-.18A46.577,46.577,0,0,0,862.786,7978.67Zm7.351,0.57a7.549,7.549,0,0,0-2.678-1.13,7.67,7.67,0,0,0-3.019,0,1.307,1.307,0,0,1-.188.05,39.717,39.717,0,0,1,2.747,4.31h0c0.3-.11.577-0.23,0.838-0.35,0,0,.011-0.01.016-0.01a8.389,8.389,0,0,0,3.034-2.25A6.852,6.852,0,0,0,870.137,7979.24Zm3.149,4.7a7.6,7.6,0,0,0-1.126-2.68c-0.125-.18-0.285-0.34-0.426-0.51a9.945,9.945,0,0,1-3.228,2.44l-0.06.03c-0.27.14-.552,0.26-0.858,0.39,0.18,0.37.354,0.74,0.514,1.12,0.057,0.13.105,0.26,0.16,0.4,0.272-.04.542-0.06,0.811-0.08a0.614,0.614,0,0,0,.135-0.01c0.229-.01.454-0.02,0.676-0.02H870c0.254,0,.5.01,0.742,0.02h0.052c0.217,0.01.424,0.02,0.623,0.04a0.679,0.679,0,0,1,.143.01c0.194,0.02.381,0.03,0.554,0.05,0.011,0,.024.01,0.035,0.01,0.186,0.02.354,0.04,0.509,0.06,0.04,0.01.074,0.01,0.112,0.02,0.117,0.02.222,0.03,0.316,0.05,0.026,0,.052.01,0.077,0.01,0.111,0.02.2,0.04,0.272,0.05h0A7.646,7.646,0,0,0,873.286,7983.94Z" transform="translate(-857 -7976.5)"/>
    </symbol>
    <symbol id="linkedin" viewBox="0 0 15 15">
        <path id="icon" class="cls-1" d="M914.428,7992v-5.66c0-1.37-.553-2.16-1.42-2.16a2.158,2.158,0,0,0-1.838.99,2.135,2.135,0,0,0-.2.93v5.87L908,7992v-11l2.6,0.18,0.149,1.88h0.064a3.575,3.575,0,0,1,3.209-1.71c2.122,0,3.99,1.44,3.99,4.57v6.05ZM903,7981h3v11l-3-.03V7981Zm1.711-.7a1.656,1.656,0,1,1,1.743-1.66A1.629,1.629,0,0,1,904.711,7980.3Z" transform="translate(-903 -7977)"/>
    </symbol>
</svg>

 