<?xml version="1.0" standalone="no"?>
<!DOCTYPE svg PUBLIC "-//W3C//DTD SVG 20010904//EN"
 "http://www.w3.org/TR/2001/REC-SVG-20010904/DTD/svg10.dtd">
<svg version="1.0" xmlns="http://www.w3.org/2000/svg"
 width="103.000000pt" height="103.000000pt" viewBox="0 0 103.000000 103.000000"
 preserveAspectRatio="xMidYMid meet">
<metadata>
Created by potrace 1.14, written by Peter Selinger 2001-2017
</metadata>
<g transform="translate(0.000000,103.000000) scale(0.100000,-0.100000)"
fill="#000000" stroke="none">
<path d="M0 520 l0 -350 515 0 515 0 0 350 0 350 -515 0 -515 0 0 -350z m378
64 c33 -37 32 -125 -3 -159 -32 -33 -93 -34 -122 -2 -46 48 -37 153 15 182 36
20 82 11 110 -21z m-168 11 c0 -12 -13 -15 -55 -15 -54 0 -55 0 -55 -30 0 -29
2 -30 45 -30 33 0 45 -4 45 -15 0 -11 -12 -15 -45 -15 l-45 0 0 -45 c0 -38 -3
-45 -20 -45 -19 0 -20 7 -20 105 l0 105 75 0 c60 0 75 -3 75 -15z m362 -2 c10
-9 18 -22 18 -30 0 -20 -28 -16 -40 7 -14 26 -56 26 -70 1 -14 -27 -13 -114 2
-129 19 -19 56 -14 70 8 14 23 38 27 38 7 0 -26 -26 -48 -62 -53 -32 -6 -41
-2 -69 25 -29 30 -31 36 -27 86 6 70 27 95 81 95 24 0 48 -7 59 -17z m190 -88
c35 -98 36 -105 18 -105 -13 0 -22 9 -26 25 -5 21 -12 25 -45 25 -33 0 -41 -4
-49 -25 -9 -23 -40 -36 -40 -17 0 5 14 46 30 93 17 46 33 90 35 97 2 6 12 12
22 12 14 0 27 -25 55 -105z m98 15 l0 -90 45 0 c33 0 45 -4 45 -15 0 -12 -14
-15 -65 -15 l-65 0 0 105 c0 98 1 105 20 105 19 0 20 -7 20 -90z"/>
<path d="M293 582 c-32 -20 -38 -105 -11 -139 14 -18 43 -16 62 3 24 23 21 99
-4 124 -22 22 -29 24 -47 12z"/>
<path d="M691 529 c-16 -47 -14 -59 12 -59 33 0 37 7 25 43 -16 48 -24 52 -37
16z"/>
</g>
</svg>
